<svg xmlns="http://www.w3.org/2000/svg" viewBox="0 0 130.9 63.1">
    <g>
        <g fill="#E2271C">
            <path d="M89.4,14.1c-1.8,1.4-3.4,3.2-4.2,5.3c-0.8,2-1.2,4.2-2.4,6c-1.5,2.3-3.6,4.4-6.1,5.4c-1.5,0.5-3,1-4.7,1 c-0.4,0-0.9,0-1.3-0.1c-0.5-2.8,0-5.9,0.2-8.8c0.2-2.3,0.8-4.4,1.3-6.6c0.4-1.5,0.9-3.1,1.5-4.6h0.1c0.5,0.8,0.2,1.8,0.2,2.7 c-0.4,2.4-0.5,5.2,0.5,7.3c0.5,1.1,1.5,1.9,2.5,2.5c1,0.5,2.2,0.3,3.1-0.2c1.8-1.1,2.5-3.1,2.3-5.2c-0.3-2.6-2.2-4.6-3.4-6.8 c-0.1-0.2,0-0.3,0-0.4c0.2-0.2,0.4-0.2,0.6-0.1c0.5,0.3,0.8,0.9,1.2,1.4c0.9,1.3,1.7,2.6,2.5,3.8c0.3,0.5,0.8,0.6,1.3,0.7 c0.1,0,0.2-0.1,0.3-0.1c1.3-1.4,2.4-3.4,4.3-3.9C89.4,13.4,89.7,13.8,89.4,14.1"></path>
            <path d="M71.7,13.4c-0.5,1.4-0.8,2.8-1.3,4.2c-0.3-0.8-0.5-1.7-0.9-2.5c-0.9-2.1-2.1-4-3.8-5.7 c-1.9-1.8-4.2-3.2-6.8-3.5c-1.9-0.4-4.1-0.2-5.8,0.3c-1.2,0.3-2.3,1-3.4,1.7c-1.6,1.1-2.6,2.7-3.5,4.3c-0.7,1.7-1.3,3.4-1.1,5.4 c-0.1,3,1,5.8,3,8c1.4,1.1,2.8,2.2,4.6,2.7c2.7,0.8,5.8,0.3,8-1.2c1.1-0.8,1.8-1.9,2.5-3c0.5-1.3,0.8-2.8,0.9-4.3 c-0.2-3.1-1.6-6.2-4.4-7.9c-1.7-1-4.1-1-5.8-0.1c-2.3,1.1-3.4,3.5-3.3,6c-0.1,1.9,0.9,3.6,2.4,4.8c1,0.9,2.8,0.8,4,0.3 c0.7-0.4,1.3-1,1.5-1.8c0.5-1,0.3-2.4-0.3-3.3c-0.3-0.6-0.9-1-1.6-1.1c-0.4,0-0.9-0.1-1.3,0.1c-0.3,0.2-0.5,0.5-0.6,0.8 c0,0.3,0,0.5,0.2,0.8c0.5-0.2,1.2-0.2,1.7,0.1c0.6,0.4,0.7,1.1,0.6,1.8c-0.1,0.5-0.3,1-0.7,1.3c-0.7,0.6-1.8,0.4-2.5,0.2 c-1.6-0.9-2-2.7-2-4.4c0.1-1.8,1.1-3.6,2.7-4.4c1.2-0.5,2.7-0.3,3.9,0.1c1.7,0.7,3.2,2.5,3.6,4.3c0.7,2.1,0.5,4.7-0.6,6.6 C60,26,57.6,27,54.8,26.9c-3.3-0.2-6.4-2.4-7.5-5.6c-0.6-2.3-1-5.1-0.1-7.3c0.8-2.6,3-5,5.6-6c1.3-0.6,2.9-0.9,4.4-0.8 c1,0,1.9,0.2,2.7,0.4c2.6,0.8,5.3,2.4,6.7,4.9c1.8,3,3.1,6.4,2.9,10.2c-0.1,3.4-2.2,6.4-4.8,8.5c-3.7,2.7-8.7,3.2-13.3,2.4 c-3.1-0.6-5.8-2.5-7.8-5c-2.9-3.5-3.8-8.1-3.6-12.8c0.2-3.8,2.2-7,4.7-9.9c3.3-3.7,7.7-5.7,12.7-5.9c2.5,0.1,5,0.4,7.2,1.6 c2.3,1.1,4.4,2.8,5.8,5.1c0.7,1.2,1.4,2.4,2.5,3.3c0.1,0,0.1,0,0.2,0C72.6,11.2,72.1,12.2,71.7,13.4"></path>
            <path d="M69.4,32.2c-1.9,1.1-4,1.5-6.2,1.6c0,0,0-0.1-0.1-0.1c2.3-1.3,4.8-3,6-5.4h0.1C69.2,29.5,69.3,30.9,69.4,32.2"></path>
            <g fill="#FFFFFF">
                <path d="M127.7,44.5h0.4c0.4,0,0.7-0.1,0.7-0.5c0-0.3-0.2-0.5-0.7-0.5c-0.2,0-0.3,0-0.4,0V44.5z M127.7,46.2h-0.5v-3.1 c0.3,0,0.5-0.1,0.9-0.1c0.5,0,0.8,0.1,1,0.2c0.2,0.1,0.3,0.3,0.3,0.6c0,0.4-0.3,0.6-0.6,0.7v0c0.3,0,0.4,0.3,0.5,0.7 c0.1,0.5,0.1,0.7,0.2,0.8h-0.5c-0.1-0.1-0.1-0.4-0.2-0.8c-0.1-0.4-0.3-0.5-0.7-0.5h-0.3V46.2z M128.2,42.3c-1.2,0-2.2,1-2.2,2.3 c0,1.3,1,2.3,2.2,2.3c1.2,0,2.2-1,2.2-2.3C130.4,43.3,129.5,42.3,128.2,42.3L128.2,42.3z M128.2,41.8c1.5,0,2.7,1.2,2.7,2.7 c0,1.5-1.2,2.8-2.7,2.8c-1.5,0-2.7-1.2-2.7-2.8C125.5,43.1,126.7,41.8,128.2,41.8L128.2,41.8z"></path>
                <g>
                    <path d="M0,55.3h0.5c0,4.9,2.9,7.2,6.3,7.2c2.8,0,4.8-1.8,4.8-4.4c0-3-1.6-3.9-4.9-4.4C2.1,52.9,0,52.2,0,47.3 c0-3.3,2.2-5.7,5.4-5.7c3,0,4.1,1.8,5.1,1.8c0.7,0,0.8-0.7,0.8-1.1h0.5v6.1h-0.5c-0.3-3.3-2.1-6.3-5.9-6.3 c-2.5,0-4.2,1.6-4.2,4.3c0,2.6,1,3.2,5.8,4.1c4.2,0.8,6,2.1,6,5.9c0,3.8-2.1,6.6-6.3,6.6c-2.9,0-4.4-1.5-5.5-1.5 c-0.7,0-0.7,0.7-0.7,1.2H0V55.3z"></path>
                    <path d="M17,42.4h-2.3v-0.5H17c0.9,0,1.9-0.1,2.4-0.7V62h2.3v0.5h-7.1V62H17V42.4z"></path>
                    <path d="M28.8,49.9c3.7,0,6.1,3.1,6.1,6.4s-2.4,6.4-6.1,6.4c-3.7,0-6.1-3.1-6.1-6.4S25.1,49.9,28.8,49.9z M32.2,55.2 c0-2.5-0.1-4.8-3.4-4.8c-3.2,0-3.4,2.3-3.4,4.8v2.3c0,2.5,0.1,4.8,3.4,4.8c3.2,0,3.4-2.3,3.4-4.8V55.2z"></path>
                    <path d="M37.2,51h-1.6v-0.5h13V51h-2.3l3.8,8.9l2.8-6.3c0.3-0.8,0.5-1.2,0.5-1.7c0-0.6-0.4-0.9-1.4-0.9h-0.8v-0.5h5V51 c-1.8,0-2.1,0.8-2.8,2.3l-4.3,9.8H49l-3.2-7.2l-3.1,7.2h-0.2L37.2,51z M43.7,59.7l1.9-4.3L43.7,51H40L43.7,59.7z"></path>
                    <path d="M67.8,42.5h-2.6v-0.5h15.5L81,47h-0.5c-0.1-3.4-2-4.5-5.2-4.5h-4.6v9.3h2.2c3,0,3.3-1.8,3.3-3.7h0.5v7.7h-0.5 c0-2.2-0.3-3.5-3.3-3.5h-2.1V62h2.7v0.5h-8.3V62h2.6V42.5z"></path>
                    <path d="M87.2,49.9c3.7,0,6.1,3.1,6.1,6.4s-2.4,6.4-6.1,6.4c-3.7,0-6.1-3.1-6.1-6.4S83.5,49.9,87.2,49.9z M90.6,55.2 c0-2.5-0.1-4.8-3.4-4.8c-3.2,0-3.4,2.3-3.4,4.8v2.3c0,2.5,0.1,4.8,3.4,4.8c3.2,0,3.4-2.3,3.4-4.8V55.2z"></path>
                    <path d="M101.7,49.9c3.7,0,6.1,3.1,6.1,6.4s-2.4,6.4-6.1,6.4c-3.7,0-6.1-3.1-6.1-6.4S97.9,49.9,101.7,49.9z M105,55.2 c0-2.5-0.1-4.8-3.4-4.8c-3.2,0-3.4,2.3-3.4,4.8v2.3c0,2.5,0.1,4.8,3.4,4.8c3.2,0,3.4-2.3,3.4-4.8V55.2z"></path>
                    <path d="M120,60.3L120,60.3c-0.5,1-1.9,2.5-3.9,2.5c-3.6,0-6-3-6-6.4c0-2.8,2.3-6.4,5.8-6.4c2.1,0,3.5,1.6,4,3h0.1V42.4h-2.3 v-0.5h2.3c0.9,0,1.9-0.1,2.4-0.7V62h2v0.5H120V60.3z M120,54.9c0-2.1-1.7-4.5-4.1-4.5c-2.5,0-3,2-3,6c0,4.3,0.3,6,3.2,6 c2,0,3.9-1.7,3.9-4.1V54.9z"></path>
                </g>
            </g>
        </g>
    </g>
</svg>